<mxfile host="app.diagrams.net" modified="2023-12-19T17:53:31.486Z" agent="Mozilla/5.0 (Windows NT 10.0; Win64; x64; rv:120.0) Gecko/20100101 Firefox/120.0" etag="2pPcZmeUhQkgtNDp2ONO" version="22.1.11" type="github">
  <diagram name="PÃ¡gina-1" id="85hNEJwqGChfd6EpBUkv">
    <mxGraphModel dx="2417" dy="2226" grid="1" gridSize="10" guides="1" tooltips="1" connect="1" arrows="1" fold="1" page="1" pageScale="1" pageWidth="827" pageHeight="1169" math="0" shadow="0">
      <root>
        <mxCell id="0" />
        <mxCell id="1" parent="0" />
        <mxCell id="jIUX5L0xmIlS2uTBd8Ho-2" value="" style="rounded=0;whiteSpace=wrap;html=1;" parent="1" vertex="1">
          <mxGeometry x="317" y="-830" width="120" height="80" as="geometry" />
        </mxCell>
        <mxCell id="jIUX5L0xmIlS2uTBd8Ho-66" style="edgeStyle=orthogonalEdgeStyle;rounded=0;orthogonalLoop=1;jettySize=auto;html=1;entryX=0.5;entryY=0;entryDx=0;entryDy=0;entryPerimeter=0;exitX=0.5;exitY=1;exitDx=0;exitDy=0;" parent="1" source="0K9qu8J5_vbd1Dt8Hgkw-45" target="jIUX5L0xmIlS2uTBd8Ho-5" edge="1">
          <mxGeometry relative="1" as="geometry">
            <mxPoint x="387" y="-420" as="targetPoint" />
            <mxPoint x="387" y="-480" as="sourcePoint" />
            <Array as="points">
              <mxPoint x="377" y="-630" />
              <mxPoint x="577" y="-630" />
              <mxPoint x="577" y="-620" />
            </Array>
          </mxGeometry>
        </mxCell>
        <mxCell id="jIUX5L0xmIlS2uTBd8Ho-74" value="" style="edgeStyle=orthogonalEdgeStyle;rounded=0;orthogonalLoop=1;jettySize=auto;html=1;" parent="1" source="jIUX5L0xmIlS2uTBd8Ho-5" target="jIUX5L0xmIlS2uTBd8Ho-73" edge="1">
          <mxGeometry relative="1" as="geometry" />
        </mxCell>
        <mxCell id="jIUX5L0xmIlS2uTBd8Ho-75" value="1" style="edgeLabel;html=1;align=center;verticalAlign=middle;resizable=0;points=[];" parent="jIUX5L0xmIlS2uTBd8Ho-74" connectable="0" vertex="1">
          <mxGeometry x="-0.26" y="3" relative="1" as="geometry">
            <mxPoint as="offset" />
          </mxGeometry>
        </mxCell>
        <mxCell id="jIUX5L0xmIlS2uTBd8Ho-80" value="" style="edgeStyle=orthogonalEdgeStyle;rounded=0;orthogonalLoop=1;jettySize=auto;html=1;" parent="1" source="jIUX5L0xmIlS2uTBd8Ho-5" target="jIUX5L0xmIlS2uTBd8Ho-79" edge="1">
          <mxGeometry relative="1" as="geometry" />
        </mxCell>
        <mxCell id="jIUX5L0xmIlS2uTBd8Ho-81" value="0" style="edgeLabel;html=1;align=center;verticalAlign=middle;resizable=0;points=[];" parent="jIUX5L0xmIlS2uTBd8Ho-80" connectable="0" vertex="1">
          <mxGeometry x="0.2" relative="1" as="geometry">
            <mxPoint as="offset" />
          </mxGeometry>
        </mxCell>
        <mxCell id="jIUX5L0xmIlS2uTBd8Ho-5" value="RX" style="strokeWidth=2;html=1;shape=mxgraph.flowchart.decision;whiteSpace=wrap;" parent="1" vertex="1">
          <mxGeometry x="562.75" y="-620" width="100" height="100" as="geometry" />
        </mxCell>
        <mxCell id="jIUX5L0xmIlS2uTBd8Ho-6" value="REG_DESPL" style="rounded=0;whiteSpace=wrap;html=1;" parent="1" vertex="1">
          <mxGeometry x="936" y="-537.5" width="120" height="80" as="geometry" />
        </mxCell>
        <mxCell id="jIUX5L0xmIlS2uTBd8Ho-7" value="CONT_DIFF" style="rounded=0;whiteSpace=wrap;html=1;" parent="1" vertex="1">
          <mxGeometry x="1413" y="-477.5" width="120" height="120" as="geometry" />
        </mxCell>
        <mxCell id="jIUX5L0xmIlS2uTBd8Ho-10" value="434-3" style="text;html=1;strokeColor=none;fillColor=none;align=center;verticalAlign=middle;whiteSpace=wrap;rounded=0;" parent="1" vertex="1">
          <mxGeometry x="1106" y="-668" width="60" height="30" as="geometry" />
        </mxCell>
        <mxCell id="jIUX5L0xmIlS2uTBd8Ho-11" value="" style="endArrow=classic;html=1;rounded=0;entryX=0;entryY=0.25;entryDx=0;entryDy=0;" parent="1" target="jIUX5L0xmIlS2uTBd8Ho-7" edge="1">
          <mxGeometry width="50" height="50" relative="1" as="geometry">
            <mxPoint x="1326" y="-447.5" as="sourcePoint" />
            <mxPoint x="1336" y="-557.5" as="targetPoint" />
          </mxGeometry>
        </mxCell>
        <mxCell id="jIUX5L0xmIlS2uTBd8Ho-12" value="LD_DIFF" style="text;html=1;strokeColor=none;fillColor=none;align=center;verticalAlign=middle;whiteSpace=wrap;rounded=0;" parent="1" vertex="1">
          <mxGeometry x="1266" y="-477.5" width="60" height="30" as="geometry" />
        </mxCell>
        <mxCell id="jIUX5L0xmIlS2uTBd8Ho-13" value="LD" style="text;html=1;strokeColor=none;fillColor=none;align=center;verticalAlign=middle;whiteSpace=wrap;rounded=0;" parent="1" vertex="1">
          <mxGeometry x="1406" y="-457.5" width="60" height="30" as="geometry" />
        </mxCell>
        <mxCell id="jIUX5L0xmIlS2uTBd8Ho-16" style="edgeStyle=orthogonalEdgeStyle;rounded=0;orthogonalLoop=1;jettySize=auto;html=1;entryX=0;entryY=0.5;entryDx=0;entryDy=0;" parent="1" source="jIUX5L0xmIlS2uTBd8Ho-14" target="jIUX5L0xmIlS2uTBd8Ho-15" edge="1">
          <mxGeometry relative="1" as="geometry" />
        </mxCell>
        <mxCell id="jIUX5L0xmIlS2uTBd8Ho-14" value="TC" style="text;html=1;strokeColor=none;fillColor=none;align=center;verticalAlign=middle;whiteSpace=wrap;rounded=0;" parent="1" vertex="1">
          <mxGeometry x="1476" y="-387.5" width="60" height="30" as="geometry" />
        </mxCell>
        <mxCell id="jIUX5L0xmIlS2uTBd8Ho-15" value="TC_DIFF" style="text;html=1;strokeColor=none;fillColor=none;align=center;verticalAlign=middle;whiteSpace=wrap;rounded=0;" parent="1" vertex="1">
          <mxGeometry x="1576" y="-387.5" width="60" height="30" as="geometry" />
        </mxCell>
        <mxCell id="jIUX5L0xmIlS2uTBd8Ho-35" style="edgeStyle=orthogonalEdgeStyle;rounded=0;orthogonalLoop=1;jettySize=auto;html=1;" parent="1" source="jIUX5L0xmIlS2uTBd8Ho-26" edge="1">
          <mxGeometry relative="1" as="geometry">
            <mxPoint x="1126" y="-238.5" as="targetPoint" />
          </mxGeometry>
        </mxCell>
        <mxCell id="jIUX5L0xmIlS2uTBd8Ho-26" value="CONT_PASO" style="rounded=0;whiteSpace=wrap;html=1;" parent="1" vertex="1">
          <mxGeometry x="946" y="-298.5" width="120" height="120" as="geometry" />
        </mxCell>
        <mxCell id="jIUX5L0xmIlS2uTBd8Ho-27" value="" style="endArrow=classic;html=1;rounded=0;entryX=0.5;entryY=0;entryDx=0;entryDy=0;" parent="1" target="jIUX5L0xmIlS2uTBd8Ho-26" edge="1">
          <mxGeometry width="50" height="50" relative="1" as="geometry">
            <mxPoint x="1006" y="-358.5" as="sourcePoint" />
            <mxPoint x="866" y="-378.5" as="targetPoint" />
          </mxGeometry>
        </mxCell>
        <mxCell id="jIUX5L0xmIlS2uTBd8Ho-28" value="20" style="text;html=1;strokeColor=none;fillColor=none;align=center;verticalAlign=middle;whiteSpace=wrap;rounded=0;" parent="1" vertex="1">
          <mxGeometry x="976" y="-398.5" width="60" height="30" as="geometry" />
        </mxCell>
        <mxCell id="jIUX5L0xmIlS2uTBd8Ho-29" value="" style="endArrow=classic;html=1;rounded=0;entryX=0;entryY=0.25;entryDx=0;entryDy=0;" parent="1" target="jIUX5L0xmIlS2uTBd8Ho-26" edge="1">
          <mxGeometry width="50" height="50" relative="1" as="geometry">
            <mxPoint x="856" y="-268.5" as="sourcePoint" />
            <mxPoint x="866" y="-378.5" as="targetPoint" />
          </mxGeometry>
        </mxCell>
        <mxCell id="jIUX5L0xmIlS2uTBd8Ho-30" value="LD_PASO" style="text;html=1;strokeColor=none;fillColor=none;align=center;verticalAlign=middle;whiteSpace=wrap;rounded=0;" parent="1" vertex="1">
          <mxGeometry x="859" y="-308.5" width="60" height="30" as="geometry" />
        </mxCell>
        <mxCell id="jIUX5L0xmIlS2uTBd8Ho-31" value="Reset" style="text;html=1;strokeColor=none;fillColor=none;align=center;verticalAlign=middle;whiteSpace=wrap;rounded=0;" parent="1" vertex="1">
          <mxGeometry x="936" y="-278.5" width="60" height="30" as="geometry" />
        </mxCell>
        <mxCell id="jIUX5L0xmIlS2uTBd8Ho-37" value="" style="endArrow=classic;html=1;rounded=0;entryX=1;entryY=0.75;entryDx=0;entryDy=0;" parent="1" target="jIUX5L0xmIlS2uTBd8Ho-6" edge="1">
          <mxGeometry width="50" height="50" relative="1" as="geometry">
            <mxPoint x="1136" y="-477.5" as="sourcePoint" />
            <mxPoint x="1296" y="-527.5" as="targetPoint" />
          </mxGeometry>
        </mxCell>
        <mxCell id="jIUX5L0xmIlS2uTBd8Ho-38" value="UART-16" style="rounded=0;whiteSpace=wrap;html=1;" parent="1" vertex="1">
          <mxGeometry x="133" y="420" width="160" height="80" as="geometry" />
        </mxCell>
        <mxCell id="jIUX5L0xmIlS2uTBd8Ho-39" value="" style="endArrow=classic;html=1;rounded=0;entryX=0;entryY=0.5;entryDx=0;entryDy=0;" parent="1" target="jIUX5L0xmIlS2uTBd8Ho-38" edge="1">
          <mxGeometry width="50" height="50" relative="1" as="geometry">
            <mxPoint x="63" y="460" as="sourcePoint" />
            <mxPoint x="773" y="380" as="targetPoint" />
          </mxGeometry>
        </mxCell>
        <mxCell id="jIUX5L0xmIlS2uTBd8Ho-42" value="" style="endArrow=classic;html=1;rounded=0;exitX=1;exitY=0.25;exitDx=0;exitDy=0;" parent="1" source="jIUX5L0xmIlS2uTBd8Ho-38" edge="1">
          <mxGeometry width="50" height="50" relative="1" as="geometry">
            <mxPoint x="53" y="610" as="sourcePoint" />
            <mxPoint x="353" y="440" as="targetPoint" />
          </mxGeometry>
        </mxCell>
        <mxCell id="jIUX5L0xmIlS2uTBd8Ho-43" value="" style="endArrow=none;html=1;rounded=0;" parent="1" edge="1">
          <mxGeometry width="50" height="50" relative="1" as="geometry">
            <mxPoint x="303" y="450" as="sourcePoint" />
            <mxPoint x="333" y="430" as="targetPoint" />
          </mxGeometry>
        </mxCell>
        <mxCell id="jIUX5L0xmIlS2uTBd8Ho-44" value="0" style="text;html=1;strokeColor=none;fillColor=none;align=center;verticalAlign=middle;whiteSpace=wrap;rounded=0;" parent="1" vertex="1">
          <mxGeometry x="200" y="-675" width="60" height="30" as="geometry" />
        </mxCell>
        <mxCell id="jIUX5L0xmIlS2uTBd8Ho-45" value="" style="endArrow=classic;html=1;rounded=0;exitX=1;exitY=0.75;exitDx=0;exitDy=0;" parent="1" source="jIUX5L0xmIlS2uTBd8Ho-38" edge="1">
          <mxGeometry width="50" height="50" relative="1" as="geometry">
            <mxPoint x="53" y="610" as="sourcePoint" />
            <mxPoint x="353" y="480" as="targetPoint" />
          </mxGeometry>
        </mxCell>
        <mxCell id="jIUX5L0xmIlS2uTBd8Ho-46" value="MANDANDO" style="text;html=1;strokeColor=none;fillColor=none;align=center;verticalAlign=middle;whiteSpace=wrap;rounded=0;" parent="1" vertex="1">
          <mxGeometry x="303" y="480" width="60" height="30" as="geometry" />
        </mxCell>
        <mxCell id="jIUX5L0xmIlS2uTBd8Ho-47" value="SL" style="text;html=1;strokeColor=none;fillColor=none;align=center;verticalAlign=middle;whiteSpace=wrap;rounded=0;" parent="1" vertex="1">
          <mxGeometry x="1006" y="-487.5" width="60" height="30" as="geometry" />
        </mxCell>
        <mxCell id="jIUX5L0xmIlS2uTBd8Ho-48" value="DESPLAZAR" style="text;html=1;strokeColor=none;fillColor=none;align=center;verticalAlign=middle;whiteSpace=wrap;rounded=0;" parent="1" vertex="1">
          <mxGeometry x="1106" y="-477.5" width="60" height="30" as="geometry" />
        </mxCell>
        <mxCell id="jIUX5L0xmIlS2uTBd8Ho-49" value="SR" style="text;html=1;strokeColor=none;fillColor=none;align=center;verticalAlign=middle;whiteSpace=wrap;rounded=0;" parent="1" vertex="1">
          <mxGeometry x="926" y="-487.5" width="60" height="30" as="geometry" />
        </mxCell>
        <mxCell id="jIUX5L0xmIlS2uTBd8Ho-51" value="" style="endArrow=classic;html=1;rounded=0;entryX=0;entryY=0.5;entryDx=0;entryDy=0;" parent="1" target="jIUX5L0xmIlS2uTBd8Ho-49" edge="1">
          <mxGeometry width="50" height="50" relative="1" as="geometry">
            <mxPoint x="866" y="-467.5" as="sourcePoint" />
            <mxPoint x="1006" y="-297.5" as="targetPoint" />
          </mxGeometry>
        </mxCell>
        <mxCell id="jIUX5L0xmIlS2uTBd8Ho-52" value="ANADIR" style="text;html=1;strokeColor=none;fillColor=none;align=center;verticalAlign=middle;whiteSpace=wrap;rounded=0;" parent="1" vertex="1">
          <mxGeometry x="856" y="-497.5" width="60" height="30" as="geometry" />
        </mxCell>
        <mxCell id="jIUX5L0xmIlS2uTBd8Ho-53" value="SALIDA" style="text;html=1;strokeColor=none;fillColor=none;align=center;verticalAlign=middle;whiteSpace=wrap;rounded=0;" parent="1" vertex="1">
          <mxGeometry x="353" y="430" width="60" height="30" as="geometry" />
        </mxCell>
        <mxCell id="jIUX5L0xmIlS2uTBd8Ho-54" value="DATOS" style="text;html=1;strokeColor=none;fillColor=none;align=center;verticalAlign=middle;whiteSpace=wrap;rounded=0;" parent="1" vertex="1">
          <mxGeometry x="1006" y="-447.5" width="60" height="30" as="geometry" />
        </mxCell>
        <mxCell id="jIUX5L0xmIlS2uTBd8Ho-55" value="" style="endArrow=classic;html=1;rounded=0;exitX=0.5;exitY=1;exitDx=0;exitDy=0;" parent="1" source="jIUX5L0xmIlS2uTBd8Ho-6" edge="1">
          <mxGeometry width="50" height="50" relative="1" as="geometry">
            <mxPoint x="1146" y="-467.5" as="sourcePoint" />
            <mxPoint x="996" y="-437.5" as="targetPoint" />
          </mxGeometry>
        </mxCell>
        <mxCell id="jIUX5L0xmIlS2uTBd8Ho-56" value="RESET_desp" style="text;html=1;strokeColor=none;fillColor=none;align=center;verticalAlign=middle;whiteSpace=wrap;rounded=0;" parent="1" vertex="1">
          <mxGeometry x="846" y="-547.5" width="60" height="30" as="geometry" />
        </mxCell>
        <mxCell id="jIUX5L0xmIlS2uTBd8Ho-57" value="" style="endArrow=classic;html=1;rounded=0;entryX=0;entryY=0.25;entryDx=0;entryDy=0;" parent="1" target="jIUX5L0xmIlS2uTBd8Ho-6" edge="1">
          <mxGeometry width="50" height="50" relative="1" as="geometry">
            <mxPoint x="856" y="-517.5" as="sourcePoint" />
            <mxPoint x="1026" y="-537.5" as="targetPoint" />
          </mxGeometry>
        </mxCell>
        <mxCell id="jIUX5L0xmIlS2uTBd8Ho-58" value="*" style="text;html=1;strokeColor=none;fillColor=none;align=center;verticalAlign=middle;whiteSpace=wrap;rounded=0;" parent="1" vertex="1">
          <mxGeometry x="247" y="-1130" width="60" height="30" as="geometry" />
        </mxCell>
        <mxCell id="jIUX5L0xmIlS2uTBd8Ho-62" style="edgeStyle=orthogonalEdgeStyle;rounded=0;orthogonalLoop=1;jettySize=auto;html=1;entryX=0.5;entryY=0;entryDx=0;entryDy=0;" parent="1" source="jIUX5L0xmIlS2uTBd8Ho-2" target="0K9qu8J5_vbd1Dt8Hgkw-45" edge="1">
          <mxGeometry relative="1" as="geometry">
            <mxPoint x="377" y="-577" as="targetPoint" />
          </mxGeometry>
        </mxCell>
        <mxCell id="jIUX5L0xmIlS2uTBd8Ho-68" value="Otros" style="text;html=1;strokeColor=none;fillColor=none;align=center;verticalAlign=middle;whiteSpace=wrap;rounded=0;" parent="1" vertex="1">
          <mxGeometry x="370" y="-464.5" width="60" height="30" as="geometry" />
        </mxCell>
        <mxCell id="jIUX5L0xmIlS2uTBd8Ho-71" value="RX" style="text;html=1;strokeColor=none;fillColor=none;align=center;verticalAlign=middle;whiteSpace=wrap;rounded=0;" parent="1" vertex="1">
          <mxGeometry x="43" y="430" width="60" height="30" as="geometry" />
        </mxCell>
        <mxCell id="ODEJybZPxeO0ny7EIjO_-7" style="edgeStyle=orthogonalEdgeStyle;rounded=0;orthogonalLoop=1;jettySize=auto;html=1;entryX=0;entryY=0.5;entryDx=0;entryDy=0;" parent="1" source="jIUX5L0xmIlS2uTBd8Ho-73" target="jIUX5L0xmIlS2uTBd8Ho-99" edge="1">
          <mxGeometry relative="1" as="geometry">
            <Array as="points">
              <mxPoint x="400" y="-165" />
            </Array>
          </mxGeometry>
        </mxCell>
        <mxCell id="jIUX5L0xmIlS2uTBd8Ho-73" value="&lt;div&gt;DESPLAZAR&lt;/div&gt;&lt;div&gt;ANADIR&lt;br&gt;&lt;/div&gt;" style="whiteSpace=wrap;html=1;strokeWidth=2;" parent="1" vertex="1">
          <mxGeometry x="333" y="-375" width="120" height="60" as="geometry" />
        </mxCell>
        <mxCell id="fmp5YFWYT4bioJHzoIEf-5" style="edgeStyle=orthogonalEdgeStyle;rounded=0;orthogonalLoop=1;jettySize=auto;html=1;" parent="1" edge="1">
          <mxGeometry relative="1" as="geometry">
            <mxPoint x="612.75" y="-209" as="targetPoint" />
            <mxPoint x="612.8000000000002" y="-316.5" as="sourcePoint" />
          </mxGeometry>
        </mxCell>
        <mxCell id="jIUX5L0xmIlS2uTBd8Ho-79" value="&lt;blockquote&gt;DESPLAZAR&lt;/blockquote&gt;" style="whiteSpace=wrap;html=1;strokeWidth=2;" parent="1" vertex="1">
          <mxGeometry x="552.75" y="-377.5" width="120" height="60" as="geometry" />
        </mxCell>
        <mxCell id="jIUX5L0xmIlS2uTBd8Ho-82" value="DEC" style="text;html=1;strokeColor=none;fillColor=none;align=center;verticalAlign=middle;whiteSpace=wrap;rounded=0;" parent="1" vertex="1">
          <mxGeometry x="1406" y="-397.5" width="60" height="30" as="geometry" />
        </mxCell>
        <mxCell id="jIUX5L0xmIlS2uTBd8Ho-83" value="" style="endArrow=classic;html=1;rounded=0;entryX=0;entryY=0.25;entryDx=0;entryDy=0;" parent="1" edge="1">
          <mxGeometry width="50" height="50" relative="1" as="geometry">
            <mxPoint x="1326" y="-387.5" as="sourcePoint" />
            <mxPoint x="1416" y="-387.5" as="targetPoint" />
          </mxGeometry>
        </mxCell>
        <mxCell id="jIUX5L0xmIlS2uTBd8Ho-84" value="1" style="text;html=1;strokeColor=none;fillColor=none;align=center;verticalAlign=middle;whiteSpace=wrap;rounded=0;" parent="1" vertex="1">
          <mxGeometry x="1280" y="-407.5" width="60" height="30" as="geometry" />
        </mxCell>
        <mxCell id="jIUX5L0xmIlS2uTBd8Ho-88" style="edgeStyle=orthogonalEdgeStyle;rounded=0;orthogonalLoop=1;jettySize=auto;html=1;entryX=1;entryY=0.25;entryDx=0;entryDy=0;" parent="1" source="jIUX5L0xmIlS2uTBd8Ho-87" target="jIUX5L0xmIlS2uTBd8Ho-7" edge="1">
          <mxGeometry relative="1" as="geometry" />
        </mxCell>
        <mxCell id="jIUX5L0xmIlS2uTBd8Ho-87" value="ACT_DIFF" style="text;html=1;strokeColor=none;fillColor=none;align=center;verticalAlign=middle;whiteSpace=wrap;rounded=0;" parent="1" vertex="1">
          <mxGeometry x="1546" y="-477.5" width="60" height="30" as="geometry" />
        </mxCell>
        <mxCell id="jIUX5L0xmIlS2uTBd8Ho-89" value="E" style="text;html=1;strokeColor=none;fillColor=none;align=center;verticalAlign=middle;whiteSpace=wrap;rounded=0;" parent="1" vertex="1">
          <mxGeometry x="1486" y="-457.5" width="60" height="30" as="geometry" />
        </mxCell>
        <mxCell id="jIUX5L0xmIlS2uTBd8Ho-90" value="DEC" style="text;html=1;strokeColor=none;fillColor=none;align=center;verticalAlign=middle;whiteSpace=wrap;rounded=0;" parent="1" vertex="1">
          <mxGeometry x="936" y="-208.5" width="60" height="30" as="geometry" />
        </mxCell>
        <mxCell id="jIUX5L0xmIlS2uTBd8Ho-91" value="1" style="text;html=1;strokeColor=none;fillColor=none;align=center;verticalAlign=middle;whiteSpace=wrap;rounded=0;" parent="1" vertex="1">
          <mxGeometry x="856" y="-228" width="60" height="30" as="geometry" />
        </mxCell>
        <mxCell id="jIUX5L0xmIlS2uTBd8Ho-92" value="" style="endArrow=classic;html=1;rounded=0;entryX=0;entryY=0.25;entryDx=0;entryDy=0;" parent="1" edge="1">
          <mxGeometry width="50" height="50" relative="1" as="geometry">
            <mxPoint x="856" y="-198.5" as="sourcePoint" />
            <mxPoint x="946" y="-198.5" as="targetPoint" />
          </mxGeometry>
        </mxCell>
        <mxCell id="jIUX5L0xmIlS2uTBd8Ho-95" style="edgeStyle=orthogonalEdgeStyle;rounded=0;orthogonalLoop=1;jettySize=auto;html=1;entryX=1;entryY=0.25;entryDx=0;entryDy=0;" parent="1" source="jIUX5L0xmIlS2uTBd8Ho-97" edge="1">
          <mxGeometry relative="1" as="geometry">
            <mxPoint x="1056" y="-278.5" as="targetPoint" />
          </mxGeometry>
        </mxCell>
        <mxCell id="jIUX5L0xmIlS2uTBd8Ho-96" value="E" style="text;html=1;strokeColor=none;fillColor=none;align=center;verticalAlign=middle;whiteSpace=wrap;rounded=0;" parent="1" vertex="1">
          <mxGeometry x="1006" y="-288.5" width="60" height="30" as="geometry" />
        </mxCell>
        <mxCell id="jIUX5L0xmIlS2uTBd8Ho-97" value="DEC_PASO" style="text;html=1;strokeColor=none;fillColor=none;align=center;verticalAlign=middle;whiteSpace=wrap;rounded=0;" parent="1" vertex="1">
          <mxGeometry x="1123" y="-298.5" width="60" height="30" as="geometry" />
        </mxCell>
        <mxCell id="jIUX5L0xmIlS2uTBd8Ho-99" value="" style="whiteSpace=wrap;html=1;strokeWidth=2;" parent="1" vertex="1">
          <mxGeometry x="517" y="-195" width="120" height="60" as="geometry" />
        </mxCell>
        <mxCell id="3o04sd7ZDWLcDFMfzuDS-67" style="edgeStyle=orthogonalEdgeStyle;rounded=0;orthogonalLoop=1;jettySize=auto;html=1;entryX=1;entryY=0.5;entryDx=0;entryDy=0;" parent="1" target="jIUX5L0xmIlS2uTBd8Ho-106" edge="1">
          <mxGeometry relative="1" as="geometry">
            <Array as="points">
              <mxPoint x="817" y="-75" />
            </Array>
            <mxPoint x="817" y="-115.00000000000045" as="sourcePoint" />
          </mxGeometry>
        </mxCell>
        <mxCell id="3o04sd7ZDWLcDFMfzuDS-68" style="edgeStyle=orthogonalEdgeStyle;rounded=0;orthogonalLoop=1;jettySize=auto;html=1;entryX=1;entryY=0.5;entryDx=0;entryDy=0;" parent="1" target="3o04sd7ZDWLcDFMfzuDS-59" edge="1">
          <mxGeometry relative="1" as="geometry">
            <Array as="points">
              <mxPoint x="817" y="-690" />
            </Array>
            <mxPoint x="817" y="-215" as="sourcePoint" />
          </mxGeometry>
        </mxCell>
        <mxCell id="jIUX5L0xmIlS2uTBd8Ho-103" value="TC_DIFF" style="strokeWidth=2;html=1;shape=mxgraph.flowchart.decision;whiteSpace=wrap;" parent="1" vertex="1">
          <mxGeometry x="767" y="-215" width="100" height="100" as="geometry" />
        </mxCell>
        <mxCell id="jIUX5L0xmIlS2uTBd8Ho-104" style="edgeStyle=orthogonalEdgeStyle;rounded=0;orthogonalLoop=1;jettySize=auto;html=1;entryX=0;entryY=0.5;entryDx=0;entryDy=0;entryPerimeter=0;" parent="1" source="jIUX5L0xmIlS2uTBd8Ho-99" edge="1">
          <mxGeometry relative="1" as="geometry">
            <mxPoint x="767" y="-165.00000000000045" as="targetPoint" />
          </mxGeometry>
        </mxCell>
        <mxCell id="jIUX5L0xmIlS2uTBd8Ho-106" value="AC_DIFF" style="ellipse;whiteSpace=wrap;html=1;" parent="1" vertex="1">
          <mxGeometry x="516.75" y="-120" width="120" height="80" as="geometry" />
        </mxCell>
        <mxCell id="0K9qu8J5_vbd1Dt8Hgkw-1" value="16" style="text;html=1;strokeColor=none;fillColor=none;align=center;verticalAlign=middle;whiteSpace=wrap;rounded=0;" parent="1" vertex="1">
          <mxGeometry x="283" y="410" width="60" height="30" as="geometry" />
        </mxCell>
        <mxCell id="0K9qu8J5_vbd1Dt8Hgkw-23" style="edgeStyle=orthogonalEdgeStyle;rounded=0;orthogonalLoop=1;jettySize=auto;html=1;entryX=0.75;entryY=1;entryDx=0;entryDy=0;" parent="1" source="0K9qu8J5_vbd1Dt8Hgkw-5" target="jIUX5L0xmIlS2uTBd8Ho-38" edge="1">
          <mxGeometry relative="1" as="geometry">
            <Array as="points">
              <mxPoint x="493" y="560" />
              <mxPoint x="253" y="560" />
            </Array>
          </mxGeometry>
        </mxCell>
        <mxCell id="0K9qu8J5_vbd1Dt8Hgkw-5" value="LCD_DRAWING_V2" style="rounded=0;whiteSpace=wrap;html=1;" parent="1" vertex="1">
          <mxGeometry x="413" y="420" width="160" height="80" as="geometry" />
        </mxCell>
        <mxCell id="0K9qu8J5_vbd1Dt8Hgkw-7" style="edgeStyle=orthogonalEdgeStyle;rounded=0;orthogonalLoop=1;jettySize=auto;html=1;" parent="1" edge="1">
          <mxGeometry relative="1" as="geometry">
            <mxPoint x="643" y="490" as="targetPoint" />
            <mxPoint x="573" y="490" as="sourcePoint" />
          </mxGeometry>
        </mxCell>
        <mxCell id="qSOnkULpWXThLfkELDch-1" style="edgeStyle=orthogonalEdgeStyle;rounded=0;orthogonalLoop=1;jettySize=auto;html=1;entryX=0.5;entryY=0;entryDx=0;entryDy=0;" parent="1" source="0K9qu8J5_vbd1Dt8Hgkw-15" target="jIUX5L0xmIlS2uTBd8Ho-2" edge="1">
          <mxGeometry relative="1" as="geometry" />
        </mxCell>
        <mxCell id="0K9qu8J5_vbd1Dt8Hgkw-15" value="&lt;div&gt;&lt;br&gt;&lt;/div&gt;&lt;div&gt;LD_PASO&lt;/div&gt;&lt;div&gt;RESET_desp&lt;/div&gt;" style="rounded=0;whiteSpace=wrap;html=1;" parent="1" vertex="1">
          <mxGeometry x="317" y="-1030" width="120" height="60" as="geometry" />
        </mxCell>
        <mxCell id="0K9qu8J5_vbd1Dt8Hgkw-20" value="" style="endArrow=classic;html=1;rounded=0;exitX=1;exitY=0.25;exitDx=0;exitDy=0;" parent="1" source="0K9qu8J5_vbd1Dt8Hgkw-5" edge="1">
          <mxGeometry width="50" height="50" relative="1" as="geometry">
            <mxPoint x="203" y="410" as="sourcePoint" />
            <mxPoint x="653" y="440" as="targetPoint" />
          </mxGeometry>
        </mxCell>
        <mxCell id="0K9qu8J5_vbd1Dt8Hgkw-21" value="..." style="text;html=1;strokeColor=none;fillColor=none;align=center;verticalAlign=middle;whiteSpace=wrap;rounded=0;" parent="1" vertex="1">
          <mxGeometry x="573" y="450" width="60" height="30" as="geometry" />
        </mxCell>
        <mxCell id="0K9qu8J5_vbd1Dt8Hgkw-22" value="Esperamos a que llege la primera seÃ±al, la cual es un 0" style="ellipse;shape=cloud;whiteSpace=wrap;html=1;" parent="1" vertex="1">
          <mxGeometry x="502.75" y="-960" width="240" height="145" as="geometry" />
        </mxCell>
        <mxCell id="0K9qu8J5_vbd1Dt8Hgkw-24" value="RECIBIDO" style="text;html=1;strokeColor=none;fillColor=none;align=center;verticalAlign=middle;whiteSpace=wrap;rounded=0;" parent="1" vertex="1">
          <mxGeometry x="316" y="580" width="60" height="30" as="geometry" />
        </mxCell>
        <mxCell id="3o04sd7ZDWLcDFMfzuDS-42" style="edgeStyle=orthogonalEdgeStyle;rounded=0;orthogonalLoop=1;jettySize=auto;html=1;entryX=0.5;entryY=1;entryDx=0;entryDy=0;" parent="1" source="0K9qu8J5_vbd1Dt8Hgkw-26" target="0K9qu8J5_vbd1Dt8Hgkw-27" edge="1">
          <mxGeometry relative="1" as="geometry">
            <Array as="points">
              <mxPoint x="180" y="-710" />
            </Array>
          </mxGeometry>
        </mxCell>
        <mxCell id="0K9qu8J5_vbd1Dt8Hgkw-26" value="&lt;div&gt;MANDANDO&lt;/div&gt;" style="rounded=0;whiteSpace=wrap;html=1;" parent="1" vertex="1">
          <mxGeometry x="9" y="-720" width="120" height="60" as="geometry" />
        </mxCell>
        <mxCell id="3o04sd7ZDWLcDFMfzuDS-36" style="edgeStyle=orthogonalEdgeStyle;rounded=0;orthogonalLoop=1;jettySize=auto;html=1;entryX=0;entryY=0.5;entryDx=0;entryDy=0;" parent="1" source="0K9qu8J5_vbd1Dt8Hgkw-27" target="0K9qu8J5_vbd1Dt8Hgkw-15" edge="1">
          <mxGeometry relative="1" as="geometry">
            <Array as="points">
              <mxPoint x="180" y="-1000" />
            </Array>
          </mxGeometry>
        </mxCell>
        <mxCell id="3o04sd7ZDWLcDFMfzuDS-47" value="1" style="edgeLabel;html=1;align=center;verticalAlign=middle;resizable=0;points=[];" parent="3o04sd7ZDWLcDFMfzuDS-36" vertex="1" connectable="0">
          <mxGeometry x="-0.6931" y="-5" relative="1" as="geometry">
            <mxPoint as="offset" />
          </mxGeometry>
        </mxCell>
        <mxCell id="3o04sd7ZDWLcDFMfzuDS-46" style="edgeStyle=orthogonalEdgeStyle;rounded=0;orthogonalLoop=1;jettySize=auto;html=1;entryX=0;entryY=0.5;entryDx=0;entryDy=0;" parent="1" source="0K9qu8J5_vbd1Dt8Hgkw-27" target="0K9qu8J5_vbd1Dt8Hgkw-26" edge="1">
          <mxGeometry relative="1" as="geometry">
            <Array as="points">
              <mxPoint x="10" y="-930" />
              <mxPoint x="10" y="-764" />
            </Array>
          </mxGeometry>
        </mxCell>
        <mxCell id="3o04sd7ZDWLcDFMfzuDS-48" value="0" style="edgeLabel;html=1;align=center;verticalAlign=middle;resizable=0;points=[];" parent="3o04sd7ZDWLcDFMfzuDS-46" vertex="1" connectable="0">
          <mxGeometry x="-0.6807" y="3" relative="1" as="geometry">
            <mxPoint as="offset" />
          </mxGeometry>
        </mxCell>
        <mxCell id="0K9qu8J5_vbd1Dt8Hgkw-27" value="RECIBIDO" style="rhombus;whiteSpace=wrap;html=1;" parent="1" vertex="1">
          <mxGeometry x="140" y="-970" width="80" height="80" as="geometry" />
        </mxCell>
        <mxCell id="3o04sd7ZDWLcDFMfzuDS-44" style="edgeStyle=orthogonalEdgeStyle;rounded=0;orthogonalLoop=1;jettySize=auto;html=1;exitX=0;exitY=0;exitDx=0;exitDy=0;" parent="1" source="0K9qu8J5_vbd1Dt8Hgkw-45" edge="1">
          <mxGeometry relative="1" as="geometry">
            <mxPoint x="130" y="-670" as="targetPoint" />
            <mxPoint x="313.5" y="-647.25" as="sourcePoint" />
            <Array as="points">
              <mxPoint x="130" y="-654" />
            </Array>
          </mxGeometry>
        </mxCell>
        <mxCell id="0K9qu8J5_vbd1Dt8Hgkw-45" value="" style="rhombus;whiteSpace=wrap;html=1;" parent="1" vertex="1">
          <mxGeometry x="313.5" y="-674.5" width="127" height="80" as="geometry" />
        </mxCell>
        <mxCell id="0K9qu8J5_vbd1Dt8Hgkw-48" value="E1" style="text;html=1;strokeColor=none;fillColor=none;align=center;verticalAlign=middle;whiteSpace=wrap;rounded=0;" parent="1" vertex="1">
          <mxGeometry x="417" y="-1070" width="60" height="30" as="geometry" />
        </mxCell>
        <mxCell id="0K9qu8J5_vbd1Dt8Hgkw-51" value="E4" style="text;html=1;strokeColor=none;fillColor=none;align=center;verticalAlign=middle;whiteSpace=wrap;rounded=0;" parent="1" vertex="1">
          <mxGeometry x="399" y="-414.5" width="60" height="30" as="geometry" />
        </mxCell>
        <mxCell id="0K9qu8J5_vbd1Dt8Hgkw-52" value="E5" style="text;html=1;strokeColor=none;fillColor=none;align=center;verticalAlign=middle;whiteSpace=wrap;rounded=0;" parent="1" vertex="1">
          <mxGeometry x="597" y="-405" width="60" height="30" as="geometry" />
        </mxCell>
        <mxCell id="0K9qu8J5_vbd1Dt8Hgkw-53" value="E6" style="text;html=1;strokeColor=none;fillColor=none;align=center;verticalAlign=middle;whiteSpace=wrap;rounded=0;" parent="1" vertex="1">
          <mxGeometry x="531" y="-225" width="60" height="30" as="geometry" />
        </mxCell>
        <mxCell id="0K9qu8J5_vbd1Dt8Hgkw-54" value="E7" style="text;html=1;strokeColor=none;fillColor=none;align=center;verticalAlign=middle;whiteSpace=wrap;rounded=0;" parent="1" vertex="1">
          <mxGeometry x="89" y="-760" width="60" height="30" as="geometry" />
        </mxCell>
        <mxCell id="3o04sd7ZDWLcDFMfzuDS-56" style="edgeStyle=orthogonalEdgeStyle;rounded=0;orthogonalLoop=1;jettySize=auto;html=1;" parent="1" source="mXy0XP1Q9Ymg1AoVvBRl-3" target="jIUX5L0xmIlS2uTBd8Ho-7" edge="1">
          <mxGeometry relative="1" as="geometry" />
        </mxCell>
        <mxCell id="mXy0XP1Q9Ymg1AoVvBRl-3" value="" style="triangle;whiteSpace=wrap;html=1;" parent="1" vertex="1">
          <mxGeometry x="1266" y="-718" width="60" height="80" as="geometry" />
        </mxCell>
        <mxCell id="mXy0XP1Q9Ymg1AoVvBRl-4" value="434/2 mas 434 - 3" style="text;html=1;strokeColor=none;fillColor=none;align=center;verticalAlign=middle;whiteSpace=wrap;rounded=0;" parent="1" vertex="1">
          <mxGeometry x="1063" y="-708" width="97" height="30" as="geometry" />
        </mxCell>
        <mxCell id="mXy0XP1Q9Ymg1AoVvBRl-7" value="" style="endArrow=classic;html=1;rounded=0;entryX=0.5;entryY=0;entryDx=0;entryDy=0;" parent="1" target="mXy0XP1Q9Ymg1AoVvBRl-3" edge="1">
          <mxGeometry width="50" height="50" relative="1" as="geometry">
            <mxPoint x="1296" y="-758" as="sourcePoint" />
            <mxPoint x="1146" y="-788" as="targetPoint" />
          </mxGeometry>
        </mxCell>
        <mxCell id="mXy0XP1Q9Ymg1AoVvBRl-9" value="" style="endArrow=classic;html=1;rounded=0;entryX=0;entryY=0.75;entryDx=0;entryDy=0;" parent="1" target="mXy0XP1Q9Ymg1AoVvBRl-3" edge="1">
          <mxGeometry width="50" height="50" relative="1" as="geometry">
            <mxPoint x="1166" y="-658" as="sourcePoint" />
            <mxPoint x="1146" y="-788" as="targetPoint" />
          </mxGeometry>
        </mxCell>
        <mxCell id="mXy0XP1Q9Ymg1AoVvBRl-10" value="" style="endArrow=classic;html=1;rounded=0;entryX=0.017;entryY=0.338;entryDx=0;entryDy=0;entryPerimeter=0;exitX=1;exitY=0.5;exitDx=0;exitDy=0;" parent="1" source="mXy0XP1Q9Ymg1AoVvBRl-4" target="mXy0XP1Q9Ymg1AoVvBRl-3" edge="1">
          <mxGeometry width="50" height="50" relative="1" as="geometry">
            <mxPoint x="1176" y="-648" as="sourcePoint" />
            <mxPoint x="1276" y="-648" as="targetPoint" />
          </mxGeometry>
        </mxCell>
        <mxCell id="mXy0XP1Q9Ymg1AoVvBRl-11" value="YMEDIO" style="text;html=1;strokeColor=none;fillColor=none;align=center;verticalAlign=middle;whiteSpace=wrap;rounded=0;" parent="1" vertex="1">
          <mxGeometry x="1286" y="-788" width="60" height="30" as="geometry" />
        </mxCell>
        <mxCell id="mXy0XP1Q9Ymg1AoVvBRl-14" value="0" style="text;html=1;strokeColor=none;fillColor=none;align=center;verticalAlign=middle;whiteSpace=wrap;rounded=0;" parent="1" vertex="1">
          <mxGeometry x="1246" y="-678" width="60" height="30" as="geometry" />
        </mxCell>
        <mxCell id="mXy0XP1Q9Ymg1AoVvBRl-15" value="1" style="text;html=1;strokeColor=none;fillColor=none;align=center;verticalAlign=middle;whiteSpace=wrap;rounded=0;" parent="1" vertex="1">
          <mxGeometry x="1246" y="-708" width="60" height="30" as="geometry" />
        </mxCell>
        <mxCell id="mXy0XP1Q9Ymg1AoVvBRl-20" value="E2" style="text;html=1;strokeColor=none;fillColor=none;align=center;verticalAlign=middle;whiteSpace=wrap;rounded=0;" parent="1" vertex="1">
          <mxGeometry x="393" y="-870" width="60" height="30" as="geometry" />
        </mxCell>
        <mxCell id="mXy0XP1Q9Ymg1AoVvBRl-22" value="Para obtener una seÃ±al mas clara, descompasamos cuando leemos el valor de RX. Para hacer esto en la primera vez que se espera se esperara mas de lo que se necesita" style="ellipse;shape=cloud;whiteSpace=wrap;html=1;" parent="1" vertex="1">
          <mxGeometry x="107" y="860" width="200" height="165.5" as="geometry" />
        </mxCell>
        <mxCell id="mXy0XP1Q9Ymg1AoVvBRl-24" value="" style="endArrow=none;html=1;rounded=0;" parent="1" edge="1">
          <mxGeometry width="50" height="50" relative="1" as="geometry">
            <mxPoint x="343" y="990" as="sourcePoint" />
            <mxPoint x="343" y="950" as="targetPoint" />
          </mxGeometry>
        </mxCell>
        <mxCell id="mXy0XP1Q9Ymg1AoVvBRl-25" value="" style="endArrow=none;html=1;rounded=0;" parent="1" edge="1">
          <mxGeometry width="50" height="50" relative="1" as="geometry">
            <mxPoint x="343" y="950" as="sourcePoint" />
            <mxPoint x="423" y="950" as="targetPoint" />
          </mxGeometry>
        </mxCell>
        <mxCell id="mXy0XP1Q9Ymg1AoVvBRl-26" value="" style="endArrow=none;html=1;rounded=0;" parent="1" edge="1">
          <mxGeometry width="50" height="50" relative="1" as="geometry">
            <mxPoint x="423" y="990" as="sourcePoint" />
            <mxPoint x="423" y="950" as="targetPoint" />
          </mxGeometry>
        </mxCell>
        <mxCell id="mXy0XP1Q9Ymg1AoVvBRl-27" value="" style="endArrow=none;html=1;rounded=0;" parent="1" edge="1">
          <mxGeometry width="50" height="50" relative="1" as="geometry">
            <mxPoint x="423" y="990" as="sourcePoint" />
            <mxPoint x="503" y="990" as="targetPoint" />
          </mxGeometry>
        </mxCell>
        <mxCell id="mXy0XP1Q9Ymg1AoVvBRl-28" value="" style="endArrow=none;html=1;rounded=0;" parent="1" edge="1">
          <mxGeometry width="50" height="50" relative="1" as="geometry">
            <mxPoint x="503" y="950" as="sourcePoint" />
            <mxPoint x="503" y="990" as="targetPoint" />
          </mxGeometry>
        </mxCell>
        <mxCell id="mXy0XP1Q9Ymg1AoVvBRl-29" value="" style="shape=curlyBracket;whiteSpace=wrap;html=1;rounded=1;flipH=1;labelPosition=right;verticalLabelPosition=middle;align=left;verticalAlign=middle;rotation=90;" parent="1" vertex="1">
          <mxGeometry x="384.25" y="953.75" width="20" height="117.5" as="geometry" />
        </mxCell>
        <mxCell id="mXy0XP1Q9Ymg1AoVvBRl-30" value="Esperamos lo de siempre + la mitad de lo de siempre" style="text;html=1;strokeColor=none;fillColor=none;align=center;verticalAlign=middle;whiteSpace=wrap;rounded=0;" parent="1" vertex="1">
          <mxGeometry x="371" y="1067.5" width="60" height="30" as="geometry" />
        </mxCell>
        <mxCell id="mXy0XP1Q9Ymg1AoVvBRl-31" value="" style="endArrow=classic;html=1;rounded=0;" parent="1" edge="1">
          <mxGeometry width="50" height="50" relative="1" as="geometry">
            <mxPoint x="383" y="860" as="sourcePoint" />
            <mxPoint x="383" y="950" as="targetPoint" />
          </mxGeometry>
        </mxCell>
        <mxCell id="mXy0XP1Q9Ymg1AoVvBRl-33" value="leemos valor" style="text;html=1;strokeColor=none;fillColor=none;align=center;verticalAlign=middle;whiteSpace=wrap;rounded=0;" parent="1" vertex="1">
          <mxGeometry x="353" y="800" width="60" height="30" as="geometry" />
        </mxCell>
        <mxCell id="mXy0XP1Q9Ymg1AoVvBRl-34" value="" style="shape=curlyBracket;whiteSpace=wrap;html=1;rounded=1;flipH=1;labelPosition=right;verticalLabelPosition=middle;align=left;verticalAlign=middle;rotation=90;" parent="1" vertex="1">
          <mxGeometry x="496.75" y="973.75" width="20" height="77.5" as="geometry" />
        </mxCell>
        <mxCell id="mXy0XP1Q9Ymg1AoVvBRl-35" value="Esperamos " style="text;html=1;strokeColor=none;fillColor=none;align=center;verticalAlign=middle;whiteSpace=wrap;rounded=0;" parent="1" vertex="1">
          <mxGeometry x="476.75" y="1037.5" width="60" height="30" as="geometry" />
        </mxCell>
        <mxCell id="mXy0XP1Q9Ymg1AoVvBRl-36" value="" style="endArrow=classic;html=1;rounded=0;" parent="1" edge="1">
          <mxGeometry width="50" height="50" relative="1" as="geometry">
            <mxPoint x="463" y="860" as="sourcePoint" />
            <mxPoint x="463" y="950" as="targetPoint" />
          </mxGeometry>
        </mxCell>
        <mxCell id="mXy0XP1Q9Ymg1AoVvBRl-37" value="leemos valor" style="text;html=1;strokeColor=none;fillColor=none;align=center;verticalAlign=middle;whiteSpace=wrap;rounded=0;" parent="1" vertex="1">
          <mxGeometry x="433" y="800" width="60" height="30" as="geometry" />
        </mxCell>
        <mxCell id="mXy0XP1Q9Ymg1AoVvBRl-39" value="" style="endArrow=none;html=1;rounded=0;" parent="1" edge="1">
          <mxGeometry width="50" height="50" relative="1" as="geometry">
            <mxPoint x="503" y="950" as="sourcePoint" />
            <mxPoint x="583" y="950" as="targetPoint" />
          </mxGeometry>
        </mxCell>
        <mxCell id="mXy0XP1Q9Ymg1AoVvBRl-40" value="" style="endArrow=classic;html=1;rounded=0;" parent="1" edge="1">
          <mxGeometry width="50" height="50" relative="1" as="geometry">
            <mxPoint x="543" y="855" as="sourcePoint" />
            <mxPoint x="543" y="945" as="targetPoint" />
          </mxGeometry>
        </mxCell>
        <mxCell id="mXy0XP1Q9Ymg1AoVvBRl-41" value="leemos valor" style="text;html=1;strokeColor=none;fillColor=none;align=center;verticalAlign=middle;whiteSpace=wrap;rounded=0;" parent="1" vertex="1">
          <mxGeometry x="513" y="795" width="60" height="30" as="geometry" />
        </mxCell>
        <mxCell id="mXy0XP1Q9Ymg1AoVvBRl-42" value="Esperamos " style="text;html=1;strokeColor=none;fillColor=none;align=center;verticalAlign=middle;whiteSpace=wrap;rounded=0;" parent="1" vertex="1">
          <mxGeometry x="571" y="1037.5" width="60" height="30" as="geometry" />
        </mxCell>
        <mxCell id="mXy0XP1Q9Ymg1AoVvBRl-43" value="" style="shape=curlyBracket;whiteSpace=wrap;html=1;rounded=1;flipH=1;labelPosition=right;verticalLabelPosition=middle;align=left;verticalAlign=middle;rotation=90;" parent="1" vertex="1">
          <mxGeometry x="571" y="973.75" width="20" height="77.5" as="geometry" />
        </mxCell>
        <mxCell id="bocKbe1DXWWVO02IjciM-1" value="&lt;div&gt;O&amp;nbsp; UT _ PASO&lt;/div&gt;" style="text;html=1;strokeColor=none;fillColor=none;align=center;verticalAlign=middle;whiteSpace=wrap;rounded=0;" parent="1" vertex="1">
          <mxGeometry x="1066" y="-228" width="170" height="30" as="geometry" />
        </mxCell>
        <mxCell id="bocKbe1DXWWVO02IjciM-4" value="A_CARGAR" style="text;html=1;strokeColor=none;fillColor=none;align=center;verticalAlign=middle;whiteSpace=wrap;rounded=0;" parent="1" vertex="1">
          <mxGeometry x="1476" y="-577.5" width="60" height="30" as="geometry" />
        </mxCell>
        <mxCell id="AbOgootLN9W9Gr8DlsBX-2" value="&lt;h1&gt;Â¿Porque esos nÃºmeros?&lt;br&gt;&lt;/h1&gt;&lt;p&gt;&lt;font style=&quot;font-size: 14px;&quot;&gt;El protocolo UART manda 115200 bit por segundos, y el clock se ejecuta cada 20ns, es decir, un cada 2*10^(-8) segundos. Si hacemos la inversa podemos ver que es un total de 50 millones de veces por segundo.Si dividimos podemos ver que por cada vez que recibimos un bit, han pasado 434 seÃ±ales de clock. TambiÃ©n hay que tener en cuenta que nuestra maquina tarda 3 ciclos en procesar los datos recibidos, por lo que se restara 3 a las entradas.&lt;/font&gt;&lt;br&gt;&lt;/p&gt;&lt;p&gt;50000000/11520=434.0277&lt;br&gt;&lt;/p&gt;" style="text;html=1;strokeColor=none;fillColor=none;spacing=5;spacingTop=-20;whiteSpace=wrap;overflow=hidden;rounded=0;" parent="1" vertex="1">
          <mxGeometry x="859" y="-1060" width="380" height="272" as="geometry" />
        </mxCell>
        <mxCell id="xJF8sujtLBJrHe7fQnCC-1" value="10" style="text;html=1;strokeColor=none;fillColor=none;align=center;verticalAlign=middle;whiteSpace=wrap;rounded=0;" parent="1" vertex="1">
          <mxGeometry x="1173" y="-718" width="60" height="35" as="geometry" />
        </mxCell>
        <mxCell id="xJF8sujtLBJrHe7fQnCC-2" value="" style="endArrow=none;html=1;rounded=0;exitX=1;exitY=1;exitDx=0;exitDy=0;" parent="1" source="mXy0XP1Q9Ymg1AoVvBRl-4" edge="1">
          <mxGeometry width="50" height="50" relative="1" as="geometry">
            <mxPoint x="763" y="-573.5" as="sourcePoint" />
            <mxPoint x="1183" y="-702.5" as="targetPoint" />
          </mxGeometry>
        </mxCell>
        <mxCell id="xJF8sujtLBJrHe7fQnCC-3" value="" style="endArrow=none;html=1;rounded=0;exitX=1;exitY=1;exitDx=0;exitDy=0;" parent="1" edge="1">
          <mxGeometry width="50" height="50" relative="1" as="geometry">
            <mxPoint x="1170" y="-646.5" as="sourcePoint" />
            <mxPoint x="1193" y="-671.5" as="targetPoint" />
          </mxGeometry>
        </mxCell>
        <mxCell id="xJF8sujtLBJrHe7fQnCC-4" value="10" style="text;html=1;strokeColor=none;fillColor=none;align=center;verticalAlign=middle;whiteSpace=wrap;rounded=0;" parent="1" vertex="1">
          <mxGeometry x="1171" y="-683" width="60" height="30" as="geometry" />
        </mxCell>
        <mxCell id="xJF8sujtLBJrHe7fQnCC-6" value="10" style="text;html=1;strokeColor=none;fillColor=none;align=center;verticalAlign=middle;whiteSpace=wrap;rounded=0;" parent="1" vertex="1">
          <mxGeometry x="1456" y="-533" width="60" height="30" as="geometry" />
        </mxCell>
        <mxCell id="xJF8sujtLBJrHe7fQnCC-7" value="" style="endArrow=none;html=1;rounded=0;entryX=0.5;entryY=1;entryDx=0;entryDy=0;" parent="1" target="bocKbe1DXWWVO02IjciM-4" edge="1">
          <mxGeometry width="50" height="50" relative="1" as="geometry">
            <mxPoint x="1453" y="-533" as="sourcePoint" />
            <mxPoint x="1746" y="-573" as="targetPoint" />
          </mxGeometry>
        </mxCell>
        <mxCell id="xJF8sujtLBJrHe7fQnCC-8" value="" style="endArrow=none;html=1;rounded=0;" parent="1" edge="1">
          <mxGeometry width="50" height="50" relative="1" as="geometry">
            <mxPoint x="993" y="-323" as="sourcePoint" />
            <mxPoint x="1023" y="-333" as="targetPoint" />
          </mxGeometry>
        </mxCell>
        <mxCell id="xJF8sujtLBJrHe7fQnCC-9" value="5" style="text;html=1;strokeColor=none;fillColor=none;align=center;verticalAlign=middle;whiteSpace=wrap;rounded=0;" parent="1" vertex="1">
          <mxGeometry x="986" y="-357.5" width="60" height="30" as="geometry" />
        </mxCell>
        <mxCell id="3o04sd7ZDWLcDFMfzuDS-61" style="edgeStyle=orthogonalEdgeStyle;rounded=0;orthogonalLoop=1;jettySize=auto;html=1;entryX=1;entryY=0.5;entryDx=0;entryDy=0;" parent="1" source="3o04sd7ZDWLcDFMfzuDS-59" target="jIUX5L0xmIlS2uTBd8Ho-2" edge="1">
          <mxGeometry relative="1" as="geometry" />
        </mxCell>
        <mxCell id="3o04sd7ZDWLcDFMfzuDS-59" value="&lt;div&gt;LD_DIFF&lt;/div&gt;&lt;div&gt;DEC_PASO&lt;br&gt;&lt;/div&gt;" style="ellipse;whiteSpace=wrap;html=1;" parent="1" vertex="1">
          <mxGeometry x="697" y="-830" width="120" height="80" as="geometry" />
        </mxCell>
        <mxCell id="3o04sd7ZDWLcDFMfzuDS-63" value="1" style="text;html=1;strokeColor=none;fillColor=none;align=center;verticalAlign=middle;whiteSpace=wrap;rounded=0;" parent="1" vertex="1">
          <mxGeometry x="767" y="-250.5" width="60" height="30" as="geometry" />
        </mxCell>
        <mxCell id="3o04sd7ZDWLcDFMfzuDS-64" value="0" style="text;html=1;strokeColor=none;fillColor=none;align=center;verticalAlign=middle;whiteSpace=wrap;rounded=0;" parent="1" vertex="1">
          <mxGeometry x="751" y="-115" width="60" height="30" as="geometry" />
        </mxCell>
        <mxCell id="GalgO11sBQoSbUlcYwhd-1" value="DATOS" style="text;html=1;strokeColor=none;fillColor=none;align=center;verticalAlign=middle;whiteSpace=wrap;rounded=0;" parent="1" vertex="1">
          <mxGeometry x="966" y="-437.5" width="60" height="30" as="geometry" />
        </mxCell>
        <mxCell id="GalgO11sBQoSbUlcYwhd-3" value="*" style="text;html=1;strokeColor=none;fillColor=none;align=center;verticalAlign=middle;whiteSpace=wrap;rounded=0;" parent="1" vertex="1">
          <mxGeometry x="320" y="-1060" width="60" height="30" as="geometry" />
        </mxCell>
        <mxCell id="GalgO11sBQoSbUlcYwhd-5" value="O UT_P ASO" style="text;html=1;strokeColor=none;fillColor=none;align=center;verticalAlign=middle;whiteSpace=wrap;rounded=0;" parent="1" vertex="1">
          <mxGeometry x="330.25" y="-650" width="93.5" height="30" as="geometry" />
        </mxCell>
        <mxCell id="ON-O6BLZlbOknlpEBTM4-8" style="edgeStyle=orthogonalEdgeStyle;rounded=0;orthogonalLoop=1;jettySize=auto;html=1;entryX=0.5;entryY=0;entryDx=0;entryDy=0;" parent="1" source="ON-O6BLZlbOknlpEBTM4-1" target="ON-O6BLZlbOknlpEBTM4-6" edge="1">
          <mxGeometry relative="1" as="geometry" />
        </mxCell>
        <mxCell id="ON-O6BLZlbOknlpEBTM4-1" value="&lt;div&gt;YMEDIO&lt;/div&gt;&lt;div&gt;LD_DIFF&lt;br&gt;&lt;/div&gt;" style="rounded=0;whiteSpace=wrap;html=1;" parent="1" vertex="1">
          <mxGeometry x="80" y="-305" width="120" height="80" as="geometry" />
        </mxCell>
        <mxCell id="ON-O6BLZlbOknlpEBTM4-2" style="edgeStyle=orthogonalEdgeStyle;rounded=0;orthogonalLoop=1;jettySize=auto;html=1;entryX=0.675;entryY=0.031;entryDx=0;entryDy=0;entryPerimeter=0;exitX=0;exitY=1;exitDx=0;exitDy=0;" parent="1" source="0K9qu8J5_vbd1Dt8Hgkw-45" target="ON-O6BLZlbOknlpEBTM4-1" edge="1">
          <mxGeometry relative="1" as="geometry">
            <mxPoint x="79" y="-650" as="targetPoint" />
            <mxPoint x="324" y="-520" as="sourcePoint" />
            <Array as="points" />
          </mxGeometry>
        </mxCell>
        <mxCell id="ON-O6BLZlbOknlpEBTM4-3" value="18,9" style="text;html=1;strokeColor=none;fillColor=none;align=center;verticalAlign=middle;whiteSpace=wrap;rounded=0;" parent="1" vertex="1">
          <mxGeometry x="227" y="-605" width="60" height="30" as="geometry" />
        </mxCell>
        <mxCell id="ON-O6BLZlbOknlpEBTM4-13" value="1" style="edgeStyle=orthogonalEdgeStyle;rounded=0;orthogonalLoop=1;jettySize=auto;html=1;entryX=0;entryY=0.5;entryDx=0;entryDy=0;" parent="1" source="ON-O6BLZlbOknlpEBTM4-6" target="ON-O6BLZlbOknlpEBTM4-1" edge="1">
          <mxGeometry relative="1" as="geometry">
            <Array as="points">
              <mxPoint x="60" y="-80" />
              <mxPoint x="60" y="-265" />
            </Array>
          </mxGeometry>
        </mxCell>
        <mxCell id="mwdL9OnWPxw71lmabgMB-1" style="edgeStyle=orthogonalEdgeStyle;rounded=0;orthogonalLoop=1;jettySize=auto;html=1;entryX=0;entryY=0.5;entryDx=0;entryDy=0;" edge="1" parent="1" source="ON-O6BLZlbOknlpEBTM4-6" target="jIUX5L0xmIlS2uTBd8Ho-99">
          <mxGeometry relative="1" as="geometry" />
        </mxCell>
        <mxCell id="ON-O6BLZlbOknlpEBTM4-6" value="RX" style="rhombus;whiteSpace=wrap;html=1;" parent="1" vertex="1">
          <mxGeometry x="100" y="-120" width="80" height="80" as="geometry" />
        </mxCell>
        <mxCell id="ON-O6BLZlbOknlpEBTM4-7" value="Eesperar" style="text;html=1;strokeColor=none;fillColor=none;align=center;verticalAlign=middle;whiteSpace=wrap;rounded=0;" parent="1" vertex="1">
          <mxGeometry x="160" y="-335.5" width="60" height="30" as="geometry" />
        </mxCell>
        <mxCell id="ODEJybZPxeO0ny7EIjO_-5" value="others" style="text;html=1;strokeColor=none;fillColor=none;align=center;verticalAlign=middle;whiteSpace=wrap;rounded=0;" parent="1" vertex="1">
          <mxGeometry x="437" y="-660" width="60" height="30" as="geometry" />
        </mxCell>
        <mxCell id="fmp5YFWYT4bioJHzoIEf-1" value="" style="endArrow=classic;html=1;rounded=0;exitX=0.5;exitY=0;exitDx=0;exitDy=0;entryX=0.5;entryY=1;entryDx=0;entryDy=0;" parent="1" source="jIUX5L0xmIlS2uTBd8Ho-106" target="jIUX5L0xmIlS2uTBd8Ho-99" edge="1">
          <mxGeometry width="50" height="50" relative="1" as="geometry">
            <mxPoint x="720" y="-230" as="sourcePoint" />
            <mxPoint x="770" y="-280" as="targetPoint" />
          </mxGeometry>
        </mxCell>
      </root>
    </mxGraphModel>
  </diagram>
</mxfile>
